<svg width="1013" height="558" version="1.1" xmlns="http://www.w3.org/2000/svg" xmlns:xlink="http://www.w3.org/1999/xlink"><g transform="translate(46,10)"><g id="g18" class="type-group"><g transform="translate(0,0)"><rect class="background" style="pointer-events: none; fill: none;" width="960" height="500"></rect><g id="g19" class="type-group"><g transform="translate(0,0)"><rect class="background" style="fill: none;" width="0" height="0"></rect><g id="g20" class="type-line" style=""><path d="M34.83870967741935,283.89550264550263L60,234.25387596899225L53.99999999999999,219.05193236714973L102.85714285714285,330.69701646090533L126.69517241379309,281.0857732732733L119.99999999999999,393.0898491083676L38.57142857142857,282.7656525573192L95.29411764705883,261.1111111111111L40.824,310.65239551478084L62.80615384615384,250.75406572745544L60,221.89153439153438L127.05882352941177,224.10799808429124L30.857142857142854,321.37345679012344L148.9655172413793,292.49929138321994L68.93617021276594,234.4195156695157L69.6774193548387,268.3170995670996L30,362.1445105820105L17.999999999999996,254.70185881370088L46.95652173913044,301.42642642642636L92.57142857142857,417.73897058823525L28.42105263157895,317.2212230215827L143.99999999999997,463.45029239766075L83.07692307692308,298.64296636085624L172.90164705882353,324.46502744399936L90,292.41838487972507L90,319.1906607604282L77.14285714285714,200.8500957854406L116.75675675675676,243.79488804393748L107.99999999999999,295.8792892156863L36.02117647058823,230.3208320365183L65.45454545454545,342.69877675840974L87.47999999999999,365.65671350507415L120,293.5956790123456L40.49999999999999,268.9732142857142L32.6592,348.18989071038254L96.42857142857143,298.567158931083L148.9655172413793,311.7750305250305L45,325.79607046070464L104.51612903225804,336.5244708994709L119.99999999999999,235.1899092970521L86.39999999999999,307.97655453618756L270,325.37177328843995L86.39999999999999,343.8802083333333L35.99999999999999,269.9285993740219L37.683692307692304,269.3353913111978L52.68292682926829,293.1397306397306L29.18918918918919,252.12330135891284L79.99999999999999,276.31578947368416L129.6,268.201164874552L53.99999999999999,227.34917534722223L179.99999999999994,301.7868906455863L71.99999999999999,331.1366213151927L58.37837837837838,243.2359307359307L306.18,271.45522388059703L29.871219512195122,368.8657407407407L257.1428571428571,217.99414210128498L115.71428571428572,295.687134502924L57.63388235294117,339.31902985074623L332.3076923076923,247.5382696938424L133.71428571428572,336.2479724249797L129.6,295.84241103848944L71.99999999999999,269.2220406681191L25.11627906976744,293.5130070546737L67.9245283018868,298.31242532855435L12.857142857142856,253.47222222222217L83.07692307692308,363.960113960114L43.739999999999995,379.89457831325296L32.229473684210525,182.2193287037037L67.49999999999999,319.44444444444446L241.72105263157894,280.0505050505051L93.10344827586208,344.77513227513225L43.199999999999996,240.1993727598566L179.99999999999994,187.1463477366255L244.944,288.58796296296293L52.68292682926829,272.72934941520464L56.52553846153846,309.8659003831417L249.2307692307692,320.1780125195618L71.99999999999999,230.0084175084175L96.42857142857143,333.3790204678362L129.6,257.7508960573477L168.92689655172413,322.7444903581267L104.51612903225804,153.4439599483204L31.40307692307692,114.819309600863L37.241379310344826,272.5074404761904L49.090909090909086,269.8791348600509L38.57142857142857,226.91231343283584L33.74999999999999,286.231884057971L26.999999999999996,246.22364152473637L39.99999999999999,236.6788958770091L53.99999999999999,219.05193236714973L35.99999999999999,234.67050827423162L90,174.92926954732508L126.69517241379309,281.0857732732733L45,337.7955777647136L156.52173913043475,196.96969696969694L71.99999999999999,219.13082437275983L337.49999999999994,342.06649831649827L35.99999999999999,249.79402071563084L174.70588235294116,301.81623931623926L37.683692307692304,195.38408181700868L40.49999999999999,243.39809213587716L43.199999999999996,249.41626409017715L31.764705882352942,223.29059829059827L68.93617021276594,234.4195156695157L69.6774193548387,268.3170995670996L107.99999999999999,326.6509433962264L27.69230769230769,252.67094017094013L180,236.531690140845L65.3184,228.95622895622898L327.27272727272725,201.67195048309173L31.40307692307692,188.8683037876586L46.95652173913044,222.29825628548258L56.8421052631579,201.0327635327635L157.0909090909091,237.377025462963L96.42857142857143,298.567158931083L119.99999999999999,235.1899092970521L240,228.90295358649786L90,273.81772268135904L101.24999999999999,181.88032326751835L43.199999999999996,139.55999066293185L35.99999999999999,269.9285993740219L41.53846153846154,240.84122633848563L95.29411764705883,249.98865286855482L41.53846153846154,175.77774034141964L115.71428571428572,219.6942007797271L53.99999999999999,227.34917534722223L71.99999999999999,153.65365365365363L58.37837837837838,243.2359307359307L18.620689655172413,239.65347923681253L96.42857142857143,221.6362665924069L257.1428571428571,217.99414210128498L172.79999999999998,257.62590861889925L139.968,213.92746913580243L69.6774193548387,275.7616487455197L94.49999999999999,266.0015649452269L38.57142857142857,267.73114355231144L71.99999999999999,258.3258661887694L41.53846153846154,252.99243032151074L133.71428571428572,336.2479724249797L215.99999999999997,311.48657628920785L71.99999999999999,269.2220406681191L32.229473684210525,182.2193287037037L77.35073684210526,197.52798507462683L45,239.79377104377102L39.99999999999999,155.2579365079365L90,234.48262952979934L241.72105263157894,280.0505050505051L52.68292682926829,272.72934941520464L22.267636363636363,257.52314814814815L101.24999999999999,382.27289789789785L83.07692307692308,282.0324726134585L111.72413793103449,215.62614653007086L74.48275862068965,222.89972899728997L87.56756756756755,275.44300766283527L79.99999999999999,243.10312024353112L134.99999999999997,258.89818771763214L34.83870967741935,283.89550264550263L31.40307692307692,114.819309600863L8.874782608695652,180.67758253461125L25.71428571428571,157.64241398759168L93.91304347826087,148.4991039426523L101.24999999999999,211.5631764069264L45,188.54166666666669L26.999999999999996,229.7979797979798L53.99999999999999,219.05193236714973L51.42857142857142,191.50641025641022L32.72727272727273,82.27401129943502L60,196.12068965517244L38.57142857142857,272.5943646996278L39.99999999999999,270.4248366013072L43.199999999999996,204.1446208112875L93.91304347826087,185.67409003831415L30,118.71408045977017L8.437499999999998,131.40707671957676L102.85714285714285,208.14518336070057L62.011139240506324,163.53431804820696L98.18181818181817,180.52539146289143L43.199999999999996,249.41626409017715L101.24999999999999,190.84362139917693L26.999999999999996,256.3747829861111L37.241379310344826,127.13396990740745L77.14285714285714,141.6275430359937L24.4944,158.79033905228755L107.99999999999999,326.6509433962264L35.99999999999999,103.24631860776441L35.99999999999999,162.89511494252872L15.882352941176471,175.0363843866482L12.857142857142856,135.59027777777777L101.24999999999999,224.40843621399176L29.34782608695652,145.8533077660594L34.992,245.16369047619045L69.6774193548387,209.6321532999164L75.34883720930232,206.64414414414415L67.49999999999999,223.66627725856694L34.83870967741935,163.9914772727273L35.99999999999999,182.27657004830917L35.49913043478261,286.25910746812383L73.48319999999998,253.18877551020407L34.992,208.23077824660095L40.90909090909091,113.13657407407408L34.83870967741935,214.4710998877665L19.999999999999996,181.66307471264372L78.26086956521738,211.7104261796042L21.429642857142852,231.88405797101444L33.74999999999999,101.3349514563107L95.29411764705883,249.98865286855482L45,168.99420024420027L41.53846153846154,175.77774034141964L29.18918918918919,252.12330135891284L45,171.875L51.029999999999994,198.49006116207943L40.49999999999999,157.2176684881603L139.968,213.92746913580243L38.57142857142857,128.0326493741128L83.07692307692308,233.65162037037032L71.99999999999999,258.3258661887694L43.739999999999995,379.89457831325296L32.229473684210525,182.2193287037037L50.62499999999999,162.79014459665143L43.199999999999996,207.07070707070704L90,228.46912202380952L34.83870967741935,138.55286738351253L49.090909090909086,136.60914702581368L55.10204081632652,208.8920817369093L107.99999999999999,185.7439335887612L348.38709677419354,207.15079365079362L71.99999999999999,153.2986111111111L53.99999999999999,222.40360696517416L134.99999999999997,258.89818771763214L104.51612903225804,153.4439599483204L44.999999999999986,163.2044972013125L44.53527272727273,150.1529431216931L49.090909090909086,269.8791348600509L38.57142857142857,226.91231343283584L32.6592,211.33207070707073L33.74999999999999,286.231884057971L139.3548387096774,264.40756108805897L107.99999999999999,195.66197691197692L53.99999999999999,219.05193236714973L90,174.92926954732508L126.69517241379309,281.0857732732733L38.57142857142857,272.5943646996278L60,217.19426406926408L101.24999999999999,169.99570446735396L95.29411764705883,261.1111111111111L61.71428571428571,153.42679127725853L33.74999999999999,207.9365079365079L37.683692307692304,195.38408181700868L98.18181818181817,180.52539146289143L44.53527272727273,277.3569023569023L74.48275862068965,200.70793621700875L43.199999999999996,90.0745257452574L327.27272727272725,201.67195048309173L960,214.2565359477124L46.95652173913044,222.29825628548258L96.42857142857143,197.20074455899197L44.999999999999986,128.34641706924316L49.090909090909086,185.99709784411272L157.0909090909091,237.377025462963L34.83870967741935,163.9914772727273L35.99999999999999,182.27657004830917L35.99999999999999,262.6941457586619L67.49999999999999,103.46137152777783L67.49999999999999,227.69538606403012L37.11272727272727,62.31231231231237L34.992,208.23077824660095L77.14285714285714,260.3887773315484L37.241379310344826,236.44615009746582L46.95652173913044,131.40606852497092L101.24999999999999,181.88032326751835L49.090909090909086,279.0875552972327L115.71428571428572,219.6942007797271L148.9655172413793,144.64421613394217L35.99999999999999,117.58850679651039L37.241379310344826,292.08214624881293L96.42857142857143,221.6362665924069L257.1428571428571,217.99414210128498L32.72727272727273,162.2945336391437L34.394904458598724,215.4820261437908L67.49999999999999,230.10057471264366L161.99999999999997,154.00326797385623L94.49999999999999,266.0015649452269L38.57142857142857,267.73114355231144L34.83870967741935,135.93106995884773L70.43478260869566,193.60072689511935L77.14285714285714,141.1065924657534L108.0635294117647,167.23822588020118L107.99999999999999,299.35515873015873L71.99999999999999,269.2220406681191L124.6153846153846,218.33623396123392L86.39999999999999,178.02372685185185L43.199999999999996,162.77100271002712L38.57142857142857,173.23573573573577L46.95652173913044,147.62426900584796L83.07692307692308,282.0324726134585L60,310.0358422939068L31.764705882352942,184.18927648578807L79.99999999999999,132.7101633533672L69.984,107.58627946127939L79.99999999999999,161.3888888888889L44.999999999999986,163.2044972013125L52.488,177.3885836385836L113.6842105263158,93.46303948576679L32.6592,175.8115310077519L26.999999999999996,246.22364152473637L146.96639999999996,146.24732905982904L46.95652173913044,158.63715277777777L39.99999999999999,236.6788958770091L53.99999999999999,166.9614779874214L35.99999999999999,146.6049382716049L61.236,23.290945165945175L60,196.12068965517244L34.992,125.21701388888886L107.99999999999999,219.1980286738351L127.05882352941177,205.34003831417624L10.206,106.24696307094274L24.545454545454543,124.02190923317687L8.437499999999998,131.40707671957676L71.99999999999999,116.96136788048557L102.85714285714285,208.14518336070057L62.011139240506324,163.53431804820696L74.48275862068965,200.70793621700875L101.24999999999999,190.84362139917693L27.216,166.15853658536588L77.14285714285714,141.6275430359937L65.45454545454545,135.74735449735448L36.02117647058823,219.6180555555556L35.99999999999999,103.24631860776441L174.19354838709674,173.00724637681162L99.99999999999999,218.64635157545604L15.882352941176471,175.0363843866482L327.27272727272725,201.67195048309173L86.39999999999999,192.01104280510015L142.10526315789474,192.4467275494673L33.74999999999999,87.42211838006239L44.999999999999986,128.34641706924316L49.090909090909086,185.99709784411272L42.23172413793103,223.44771241830063L67.49999999999999,223.66627725856694L34.83870967741935,163.9914772727273L119.99999999999999,212.17728758169937L34.83870967741935,214.4710998877665L129.6,166.83201058201058L78.26086956521738,211.7104261796042L34.83870967741935,141.1541571537291L174.95999999999998,165.09103641456585L44.53527272727273,133.58918128654966L65.3184,185.05163817663816L46.95652173913044,127.61488340192045L67.5,104.90063233965668L71.99999999999999,153.65365365365363L38.57142857142857,254.57196383856234L18.620689655172413,239.65347923681253L129.6,146.3246855345912L332.3076923076923,247.5382696938424L71.99999999999999,269.2220406681191L77.35073684210526,197.52798507462683L180,146.0953878406708L50.62499999999999,162.79014459665143L23.47826086956522,225.78953861337277L43.199999999999996,162.77100271002712L43.199999999999996,207.07070707070704L90,228.46912202380952L179.99999999999994,205.2730696798493L34.83870967741935,138.55286738351253L46.95652173913044,147.62426900584796L71.99999999999999,153.2986111111111L134.99999999999997,258.89818771763214L31.764705882352942,184.18927648578807L129.6,257.7508960573477L69.984,107.58627946127939L44.999999999999986,163.2044972013125L8.874782608695652,180.67758253461125L44.53527272727273,150.1529431216931L63.529411764705884,173.53714411307226L33.74999999999999,286.231884057971L26.999999999999996,246.22364152473637L74.48275862068965,171.06750645994833L107.99999999999999,195.66197691197692L93.91304347826087,185.67409003831415L101.24999999999999,169.99570446735396L43.199999999999996,164.30871865654473L33.74999999999999,207.9365079365079L270,262.9284869976359L337.49999999999994,342.06649831649827L30.857142857142854,188.0324074074074L35.99999999999999,249.79402071563084L71.99999999999999,116.96136788048557L174.70588235294116,301.81623931623926L37.683692307692304,195.38408181700868L40.49999999999999,243.39809213587716L74.48275862068965,200.70793621700875L17.496,227.3829908675799L99.99999999999999,102.43055555555554L101.24999999999999,190.84362139917693L37.241379310344826,127.13396990740745L92.57142857142857,417.73897058823525L36.02117647058823,219.6180555555556L174.19354838709674,173.00724637681162L79.99999999999999,193.5763888888889L92.57142857142857,205.02387152777777L327.27272727272725,201.67195048309173L47.64705882352941,228.44601677148847L142.10526315789474,192.4467275494673L44.999999999999986,128.34641706924316L34.83870967741935,193.69612068965512L157.0909090909091,237.377025462963L35.99999999999999,262.6941457586619L73.48319999999998,253.18877551020407L119.99999999999999,235.1899092970521L77.14285714285714,260.3887773315484L195.9552,257.0788829550512L129.6,166.83201058201058L90,273.81772268135904L236.24999999999994,285.9278549382716L45,168.99420024420027L67.5,104.90063233965668L107.99999999999999,179.59342501368366L37.241379310344826,292.08214624881293L96.42857142857143,221.6362665924069L67.49999999999999,230.10057471264366L161.99999999999997,154.00326797385623L332.3076923076923,247.5382696938424L70.43478260869566,193.60072689511935L29.18918918918919,265.5651340996168L64.8,149.94517543859655L97.9776,111.81972789115645L67.9245283018868,298.31242532855435L39.99999999999999,243.69018440709613L32.229473684210525,182.2193287037037L96.68842105263157,211.2713675213675L77.35073684210526,197.52798507462683L180,146.0953878406708L50.62499999999999,162.79014459665143L104.51612903225804,276.21882086167795L90,252.16450216450215L90,138.11728395061726L46.95652173913044,147.62426900584796L55.10204081632652,208.8920817369093L87.56756756756755,275.44300766283527L162.406015037594,192.41192411924118L37.241379310344826,239.51781970649893L60,310.0358422939068L95.29411764705883,151.62037037037032L134.99999999999997,258.89818771763214L399.99999999999994,246.71717171717174L50.62499999999999,215.95860566448806L47.71636363636363,299.4528619528619L48.9888,224.1512345679012L73.63636363636363,226.24269005847952L111.72413793103449,255.97677595628414L48.9888,316.8605405125013L199.99999999999997,410.6912144702842L123.42857142857142,261.5466101694915L107.99999999999999,219.1980286738351L38.57142857142857,272.5943646996278L58.37837837837838,384.6544715447154L72.6923076923077,234.08564814814815L108.864,254.77994227994228L92.57142857142857,417.73897058823525L174.19354838709674,173.00724637681162L78.64077669902912,274.1140185447116L85.26315789473682,290.93013468013464L172.90164705882353,324.46502744399936L90,292.41838487972507L21.599999999999998,387.1141975308642L87.47999999999999,365.65671350507415L120,293.5956790123456L199.99999999999997,308.29903978052124L148.9655172413793,311.7750305250305L323.99999999999994,205.30803080308027L104.51612903225804,336.5244708994709L93.91304347826087,221.5125709651257L301.46953846153843,320.27116402116405L194.39999999999998,253.72023809523805L86.39999999999999,307.97655453618756L39.99999999999999,290.4478458049887L67.49999999999999,234.62301587301585L37.241379310344826,236.44615009746582L51.42857142857142,199.90079365079362L119.99999999999999,263.78968253968253L270,325.37177328843995L148.9655172413793,293.3531382372108L77.14285714285714,236.49691358024688L29.18918918918919,252.12330135891284L79.99999999999999,276.31578947368416L179.99999999999994,301.7868906455863L33.74999999999999,259.3069873997709L83.07692307692308,333.5368335368335L210,319.44444444444446L57.63388235294117,339.31902985074623L134.32835820895525,279.56279342723L332.3076923076923,247.5382696938424L84.37499999999999,320.54324894514764L257.1428571428571,329.0861425942071L40.49999999999999,264.61988304093563L38.57142857142857,316.7211328976034L244.944,288.58796296296293L126.69517241379309,269.1695601851851L135,256.0679611650485L150,357.5819672131147L140.8695652173913,271.2033242258652L95.29411764705883,151.62037037037032" style="fill: none; stroke: #1f77b4; stroke-width: 2;"></path></g></g></g><g id="g21" class="type-group"><g transform="translate(0,500)"><rect class="background" style="pointer-events: none; fill: none;" width="0" height="0"></rect><g id="g22" class="type-rule" style="pointer-events: none;"></g><g id="g23" class="type-rule" style="pointer-events: none;"><line x1="0.5" y1="0" x2="0.5" y2="6" style="fill: none; stroke: #000; stroke-width: 1; opacity: 1;"></line><line x1="122.972" y1="0" x2="122.972" y2="6" style="fill: none; stroke: #000; stroke-width: 1; opacity: 1;"></line><line x1="245.444" y1="0" x2="245.444" y2="6" style="fill: none; stroke: #000; stroke-width: 1; opacity: 1;"></line><line x1="367.916" y1="0" x2="367.916" y2="6" style="fill: none; stroke: #000; stroke-width: 1; opacity: 1;"></line><line x1="490.388" y1="0" x2="490.388" y2="6" style="fill: none; stroke: #000; stroke-width: 1; opacity: 1;"></line><line x1="612.86" y1="0" x2="612.86" y2="6" style="fill: none; stroke: #000; stroke-width: 1; opacity: 1;"></line><line x1="735.332" y1="0" x2="735.332" y2="6" style="fill: none; stroke: #000; stroke-width: 1; opacity: 1;"></line><line x1="857.8039999999999" y1="0" x2="857.8039999999999" y2="6" style="fill: none; stroke: #000; stroke-width: 1; opacity: 1;"></line></g><g id="g24" class="type-rule" style="pointer-events: none;"></g><g id="g25" class="type-text" style=""><text x="0.5" y="9" text-anchor="middle" dy=".9em" style="font: 11px sans-serif; fill: #000; opacity: 1;">0.00</text><text x="122.972" y="9" text-anchor="middle" dy=".9em" style="font: 11px sans-serif; fill: #000; opacity: 1;">0.05</text><text x="245.444" y="9" text-anchor="middle" dy=".9em" style="font: 11px sans-serif; fill: #000; opacity: 1;">0.10</text><text x="367.916" y="9" text-anchor="middle" dy=".9em" style="font: 11px sans-serif; fill: #000; opacity: 1;">0.15</text><text x="490.388" y="9" text-anchor="middle" dy=".9em" style="font: 11px sans-serif; fill: #000; opacity: 1;">0.20</text><text x="612.86" y="9" text-anchor="middle" dy=".9em" style="font: 11px sans-serif; fill: #000; opacity: 1;">0.25</text><text x="735.332" y="9" text-anchor="middle" dy=".9em" style="font: 11px sans-serif; fill: #000; opacity: 1;">0.30</text><text x="857.8039999999999" y="9" text-anchor="middle" dy=".9em" style="font: 11px sans-serif; fill: #000; opacity: 1;">0.35</text></g><g id="g26" class="type-path" style="pointer-events: none;"><path transform="translate(0.5,0.5)" d="M0,6V0H960V6" style="fill: none; stroke: #000; stroke-width: 1;"></path></g><g id="g27" class="type-text" style=""><text x="480" y="35" text-anchor="middle" dy=".35em" style="font: bold 11px sans-serif; fill: #000;">dose/weight</text></g></g></g><g id="g28" class="type-group"><g transform="translate(0,0)"><rect class="background" style="pointer-events: none; fill: none;" width="0" height="0"></rect><g id="g29" class="type-rule" style="pointer-events: none;"></g><g id="g30" class="type-rule" style="pointer-events: none;"><line x1="-6" y1="500.5" x2="0" y2="500.5" style="fill: none; stroke: #000; stroke-width: 1; opacity: 1;"></line><line x1="-6" y1="458.83333333333337" x2="0" y2="458.83333333333337" style="fill: none; stroke: #000; stroke-width: 1; opacity: 1;"></line><line x1="-6" y1="417.1666666666667" x2="0" y2="417.1666666666667" style="fill: none; stroke: #000; stroke-width: 1; opacity: 1;"></line><line x1="-6" y1="375.5" x2="0" y2="375.5" style="fill: none; stroke: #000; stroke-width: 1; opacity: 1;"></line><line x1="-6" y1="333.83333333333337" x2="0" y2="333.83333333333337" style="fill: none; stroke: #000; stroke-width: 1; opacity: 1;"></line><line x1="-6" y1="292.1666666666667" x2="0" y2="292.1666666666667" style="fill: none; stroke: #000; stroke-width: 1; opacity: 1;"></line><line x1="-6" y1="250.50000000000003" x2="0" y2="250.50000000000003" style="fill: none; stroke: #000; stroke-width: 1; opacity: 1;"></line><line x1="-6" y1="208.83333333333337" x2="0" y2="208.83333333333337" style="fill: none; stroke: #000; stroke-width: 1; opacity: 1;"></line><line x1="-6" y1="167.16666666666669" x2="0" y2="167.16666666666669" style="fill: none; stroke: #000; stroke-width: 1; opacity: 1;"></line><line x1="-6" y1="125.5" x2="0" y2="125.5" style="fill: none; stroke: #000; stroke-width: 1; opacity: 1;"></line><line x1="-6" y1="83.83333333333337" x2="0" y2="83.83333333333337" style="fill: none; stroke: #000; stroke-width: 1; opacity: 1;"></line><line x1="-6" y1="42.166666666666686" x2="0" y2="42.166666666666686" style="fill: none; stroke: #000; stroke-width: 1; opacity: 1;"></line><line x1="-6" y1="0.5000000000000568" x2="0" y2="0.5000000000000568" style="fill: none; stroke: #000; stroke-width: 1; opacity: 1;"></line></g><g id="g31" class="type-rule" style="pointer-events: none;"></g><g id="g32" class="type-text" style=""><text x="-9" y="500.5" text-anchor="end" dy=".35em" style="font: 11px sans-serif; fill: #000; opacity: 1;">-1.2</text><text x="-9" y="458.83333333333337" text-anchor="end" dy=".35em" style="font: 11px sans-serif; fill: #000; opacity: 1;">-1.0</text><text x="-9" y="417.1666666666667" text-anchor="end" dy=".35em" style="font: 11px sans-serif; fill: #000; opacity: 1;">-0.8</text><text x="-9" y="375.5" text-anchor="end" dy=".35em" style="font: 11px sans-serif; fill: #000; opacity: 1;">-0.6</text><text x="-9" y="333.83333333333337" text-anchor="end" dy=".35em" style="font: 11px sans-serif; fill: #000; opacity: 1;">-0.4</text><text x="-9" y="292.1666666666667" text-anchor="end" dy=".35em" style="font: 11px sans-serif; fill: #000; opacity: 1;">-0.2</text><text x="-9" y="250.50000000000003" text-anchor="end" dy=".35em" style="font: 11px sans-serif; fill: #000; opacity: 1;">-0.0</text><text x="-9" y="208.83333333333337" text-anchor="end" dy=".35em" style="font: 11px sans-serif; fill: #000; opacity: 1;">0.2</text><text x="-9" y="167.16666666666669" text-anchor="end" dy=".35em" style="font: 11px sans-serif; fill: #000; opacity: 1;">0.4</text><text x="-9" y="125.5" text-anchor="end" dy=".35em" style="font: 11px sans-serif; fill: #000; opacity: 1;">0.6</text><text x="-9" y="83.83333333333337" text-anchor="end" dy=".35em" style="font: 11px sans-serif; fill: #000; opacity: 1;">0.8</text><text x="-9" y="42.166666666666686" text-anchor="end" dy=".35em" style="font: 11px sans-serif; fill: #000; opacity: 1;">1.0</text><text x="-9" y="0.5000000000000568" text-anchor="end" dy=".35em" style="font: 11px sans-serif; fill: #000; opacity: 1;">1.2</text></g><g id="g33" class="type-path" style="pointer-events: none;"><path transform="translate(0.5,0.5)" d="M-6,0H0V500H-6" style="fill: none; stroke: #000; stroke-width: 1;"></path></g><g id="g34" class="type-text" style=""><text x="-35" y="250" text-anchor="middle" transform="rotate(-90 -35,250)" dy=".35em" style="font: bold 11px sans-serif; fill: #000;">sentiment</text></g></g></g></g></g></g></svg>